<?xml version="1.0" encoding="UTF-8" standalone="no"?>
<!-- Created with Inkscape (http://www.inkscape.org/) -->

<svg
   xmlns:dc="http://purl.org/dc/elements/1.1/"
   xmlns:cc="http://creativecommons.org/ns#"
   xmlns:rdf="http://www.w3.org/1999/02/22-rdf-syntax-ns#"
   xmlns:svg="http://www.w3.org/2000/svg"
   xmlns="http://www.w3.org/2000/svg"
   xmlns:sodipodi="http://sodipodi.sourceforge.net/DTD/sodipodi-0.dtd"
   xmlns:inkscape="http://www.inkscape.org/namespaces/inkscape"
   id="svg2985"
   version="1.1"
   inkscape:version="0.48.4 r9939"
   width="300"
   height="185.41"
   xml:space="preserve"
   sodipodi:docname="Raman-modelocked.pdf"><metadata
     id="metadata2991"><rdf:RDF><cc:Work
         rdf:about=""><dc:format>image/svg+xml</dc:format><dc:type
           rdf:resource="http://purl.org/dc/dcmitype/StillImage" /><dc:title></dc:title></cc:Work></rdf:RDF></metadata><defs
     id="defs2989"><marker
       inkscape:stockid="Arrow1Lstart"
       orient="auto"
       refY="0.0"
       refX="0.0"
       id="Arrow1Lstart"
       style="overflow:visible"><path
         id="path3831"
         d="M 0.0,0.0 L 5.0,-5.0 L -12.5,0.0 L 5.0,5.0 L 0.0,0.0 z "
         style="fill-rule:evenodd;stroke:#000000;stroke-width:1.0pt"
         transform="scale(0.8) translate(12.5,0)" /></marker><marker
       inkscape:stockid="Arrow2Lstart"
       orient="auto"
       refY="0.0"
       refX="0.0"
       id="Arrow2Lstart"
       style="overflow:visible"><path
         id="path3849"
         style="fill-rule:evenodd;stroke-width:0.62500000;stroke-linejoin:round"
         d="M 8.7185878,4.0337352 L -2.2072895,0.016013256 L 8.7185884,-4.0017078 C 6.9730900,-1.6296469 6.9831476,1.6157441 8.7185878,4.0337352 z "
         transform="scale(1.1) translate(1,0)" /></marker><marker
       inkscape:stockid="Arrow1Lend"
       orient="auto"
       refY="0.0"
       refX="0.0"
       id="Arrow1Lend"
       style="overflow:visible;"><path
         id="path3834"
         d="M 0.0,0.0 L 5.0,-5.0 L -12.5,0.0 L 5.0,5.0 L 0.0,0.0 z "
         style="fill-rule:evenodd;stroke:#000000;stroke-width:1.0pt;"
         transform="scale(0.8) rotate(180) translate(12.5,0)" /></marker><clipPath
       clipPathUnits="userSpaceOnUse"
       id="clipPath2997"><path
         d="m 31.2,3.2 0,148.328 240,0 0,-148.328"
         clip-rule="evenodd"
         id="path2999" /></clipPath><clipPath
       clipPathUnits="userSpaceOnUse"
       id="clipPath3005"><path
         d="m 29.2,1.2 0,152.328 244,0 0,-152.328"
         clip-rule="evenodd"
         id="path3007" /></clipPath><clipPath
       clipPathUnits="userSpaceOnUse"
       id="clipPath3013"><path
         d="m 31.2,2.528 0,149 240,0 0,-149"
         clip-rule="evenodd"
         id="path3015" /></clipPath><clipPath
       clipPathUnits="userSpaceOnUse"
       id="clipPath3021"><path
         d="m 31.2,2.528 0,149 241,0 0,-149"
         clip-rule="evenodd"
         id="path3023" /></clipPath><clipPath
       clipPathUnits="userSpaceOnUse"
       id="clipPath3029"><path
         d="m 31.2,2.528 0,149 241,0 0,-149"
         clip-rule="evenodd"
         id="path3031" /></clipPath><clipPath
       clipPathUnits="userSpaceOnUse"
       id="clipPath3037"><path
         d="m 31.2,2.528 0,149 241,0 0,-149"
         clip-rule="evenodd"
         id="path3039" /></clipPath><clipPath
       clipPathUnits="userSpaceOnUse"
       id="clipPath3049"><path
         d="m 31.2,2.528 0,149 241,0 0,-149"
         clip-rule="evenodd"
         id="path3051" /></clipPath></defs><sodipodi:namedview
     pagecolor="#ffffff"
     bordercolor="#666666"
     borderopacity="1"
     objecttolerance="10"
     gridtolerance="10"
     guidetolerance="10"
     inkscape:pageopacity="0"
     inkscape:pageshadow="2"
     inkscape:window-width="760"
     inkscape:window-height="581"
     id="namedview2987"
     showgrid="false"
     inkscape:zoom="1.6452018"
     inkscape:cx="140.84843"
     inkscape:cy="92.705002"
     inkscape:window-x="74"
     inkscape:window-y="356"
     inkscape:window-maximized="0"
     inkscape:current-layer="g2993" /><g
     id="g2993"
     inkscape:groupmode="layer"
     inkscape:label="Raman-modelocked"
     transform="matrix(1.25,0,0,1.25,-39,-4)"><g
       id="g2995"
       clip-path="url(#clipPath2997)"><g
         id="g3001"><g
           id="g3003"
           clip-path="url(#clipPath3005)"><g
             id="g3009"><g
               id="g3011"
               clip-path="url(#clipPath3013)"><g
                 id="g3017"><g
                   id="g3019"
                   clip-path="url(#clipPath3021)" /></g><g
                 id="g3025"><g
                   id="g3027"
                   clip-path="url(#clipPath3029)" /></g><g
                 id="g3033"><g
                   id="g3035"
                   clip-path="url(#clipPath3037)"><path
                     d="m 36,62.531 0.071,0 0.07,0 0.071,0 0.071,0 0.07,0 0.071,0 0.071,0 0.07,0 0.071,0 0.071,0 0.07,0 0.071,0 0.071,0 0.07,0 0.071,0 0.071,0 0.07,0 0.071,0 0.071,0 0.07,0 0.071,0 0.071,0 0.07,0 0.071,0 0.071,0 0.07,0 0.071,0 0.071,0 0.07,0 0.071,0 0.141,0 0.071,0 0.071,0 0.07,0 0.071,0 0.071,0 0.07,0 0.142,0 0.07,0 0.071,0 0.141,0 0.283,0 0.07,0 0.071,0 0.141,0 0.283,0 0.565,0 0.077,0 0.077,0 0.153,0 0.076,0 0.077,0 0.153,0 0.077,0 0.077,0 0.076,0 0.077,0 0.076,0 0.077,0 0.077,0 0.076,0 0.077,0 0.076,0 0.077,0 0.077,0 0.076,0 0.077,0 0.076,0 0.077,0 0.077,0 0.076,0 0.077,0 0.076,0 0.077,0 0.077,0 0.076,0 0.077,0 0.076,0 0.077,0 0.077,0 0.076,0 0.077,0 0.077,0 0.153,0 0.076,0 0.077,0 0.153,0 0.307,0 0.076,0 0.077,0 0.153,0 0.306,0 0.077,0 0.077,0 0.153,0 0.076,0 0.077,0 0.153,0 0.072,0 0.071,0 0.072,0 0.071,0 0.072,0 0.071,0 0.072,0 0.072,0 0.071,0 0.072,0 0.071,0 0.072,0 0.071,0 0.072,0 0.071,0 0.072,0 0.071,0 0.072,0 0.071,0 0.072,0 0.071,0 0.072,0 0.071,0 0.072,0 0.072,0 0.071,0 0.072,0 0.071,0 0.072,0 0.071,0 0.072,0 0.071,0 0.072,0 0.071,0 0.072,0 0.071,0 0.072,0 0.071,0 0.072,0 0.071,0 0.072,0 0.072,0 0.071,0 0.072,0 0.071,0 0.072,0 0.071,0 0.072,0 0.071,0 0.072,0 0.071,0 0.072,0 0.071,0 0.072,0 0.071,0 0.072,0 0.072,0 0.071,0 0.072,0 0.071,0 0.072,0 0.071,0 0.072,-10e-4 0.071,0 0.07,0 0.07,0 0.071,0 0.07,0 0.07,0 0.07,-10e-4 0.07,0 0.07,0 0.07,0 0.07,-0.001 0.071,0 0.07,0 0.07,-10e-4 0.07,0 0.14,-10e-4 0.07,0 0.071,-0.001 0.07,0 0.07,-10e-4 0.07,-10e-4 0.07,0 0.14,-0.002 0.07,-10e-4 0.071,0 0.14,-0.002 0.07,-10e-4 0.07,-0.001 0.14,-0.003 0.07,-10e-4 0.071,-10e-4 0.14,-0.003 0.07,-0.002 0.07,-10e-4 0.14,-0.004 0.07,-0.002 0.071,-0.002 0.14,-0.004 0.28,-0.009 0.07,-0.002 0.071,-0.003 0.14,-0.006 0.07,-0.003 0.07,-0.003 0.14,-0.006 0.07,-0.004 0.071,-0.003 0.14,-0.007 0.28,-0.017 0.076,-0.004 0.077,-0.005 0.152,-0.01 0.304,-0.022 0.076,-0.006 0.076,-0.006 0.152,-0.012 0.304,-0.026 0.077,-0.007 0.076,-0.007 0.152,-0.014 0.304,-0.03 0.609,-0.064 0.076,-0.009 0.076,-0.008 0.152,-0.017 0.304,-0.034 0.609,-0.068 0.076,-0.008 0.076,-0.008 0.152,-0.016 0.304,-0.031 0.076,-0.008 0.076,-0.007 0.153,-0.014 0.304,-0.026 0.071,-0.006 0.071,-0.005 0.142,-0.011 0.071,-0.004 0.071,-0.005 0.142,-0.009 0.071,-0.004 0.071,-0.003 0.071,-0.004 0.071,-0.003 0.071,-0.003 0.071,-0.003 0.071,-0.003 0.071,-0.002 0.071,-0.002 0.071,-0.002 0.071,-10e-4 0.071,-10e-4 0.071,-0.001 0.071,-10e-4 0.071,0 0.071,0 0.071,0 0.071,0 0.071,10e-4 0.071,0.001 0.071,0.002 0.071,0.001 0.071,0.002 0.071,0.002 0.071,0.003 0.071,0.002 0.071,0.003 0.071,0.004 0.071,0.003 0.071,0.004 0.142,0.009 0.071,0.004 0.071,0.005 0.142,0.011 0.071,0.005 0.071,0.006 0.142,0.012 0.071,0.007 0.071,0.007 0.142,0.014 0.284,0.03 0.568,0.068 0.076,0.01 0.077,0.01 0.154,0.02 0.308,0.04 0.616,0.081 0.076,0.01 0.077,0.009 0.154,0.019 0.308,0.037 0.077,0.009 0.077,0.009 0.154,0.017 0.308,0.031 0.076,0.007 0.077,0.007 0.154,0.014 0.077,0.006 0.077,0.006 0.154,0.012 0.077,0.006 0.077,0.005 0.154,0.01 0.077,0.005 0.077,0.004 0.154,0.008 0.077,0.004 0.076,0.003 0.077,0.004 0.077,0.003 0.077,0.003 0.077,0.002 0.154,0.005 0.077,0.002 0.077,0.002 0.077,0.002 0.077,0.002 0.077,10e-4 0.077,0.002 0.077,10e-4 0.077,10e-4 0.075,0.001 0.076,10e-4 0.075,10e-4 0.076,0 0.075,0.001 0.076,0 0.075,10e-4 0.076,0 0.075,0 0.076,10e-4 0.075,0 0.076,0 0.076,0 0.075,0 0.076,0 0.075,0 0.076,0 0.075,0 0.076,0 0.075,0 0.076,0 0.075,0 0.076,0 0.075,0 0.076,0 0.075,0 0.076,0 0.076,0 0.075,0 0.076,0 0.075,0 0.076,0 0.075,0 0.076,0 0.075,0 0.076,-10e-4 0.075,0 0.076,0 0.075,-10e-4 0.076,0 0.076,-0.001 0.075,-10e-4 0.076,-10e-4 0.075,-0.001 0.076,-10e-4 0.075,-0.002 0.076,-0.002 0.075,-0.002 0.076,-0.002 0.075,-0.003 0.076,-0.002 0.075,-0.004 0.076,-0.003 0.075,-0.004 0.076,-0.004 0.076,-0.005 0.075,-0.006 0.076,-0.005 0.075,-0.007 0.076,-0.006 0.075,-0.008 0.076,-0.008 0.151,-0.018 0.07,-0.009 0.071,-0.01 0.07,-0.011 0.071,-0.011 0.07,-0.012 0.071,-0.013 0.14,-0.028 0.071,-0.015 0.07,-0.017 0.141,-0.034 0.071,-0.019 0.07,-0.02 0.141,-0.043 0.071,-0.022 0.07,-0.024 0.141,-0.051 0.07,-0.028 0.071,-0.028 0.141,-0.06 0.07,-0.032 0.071,-0.034 0.141,-0.07 0.281,-0.156 0.071,-0.042 0.07,-0.044 0.141,-0.091 0.282,-0.199 0.071,-0.053 0.07,-0.055 0.141,-0.113 0.282,-0.243 0.07,-0.065 0.071,-0.065 0.141,-0.135 0.281,-0.284 0.564,-0.622 0.077,-0.089 0.076,-0.09 0.153,-0.183 0.305,-0.375 0.612,-0.77 0.076,-0.097 0.076,-0.097 0.153,-0.192 0.306,-0.379 0.611,-0.714 0.076,-0.083 0.077,-0.082 0.153,-0.159 0.076,-0.076 0.076,-0.075 0.153,-0.143 0.077,-0.068 0.076,-0.066 0.153,-0.125 0.076,-0.059 0.077,-0.056 0.152,-0.105 0.077,-0.048 0.076,-0.046 0.077,-0.042 0.076,-0.04 0.076,-0.036 0.077,-0.034 0.076,-0.031 0.077,-0.027 0.076,-0.024 0.076,-0.021 0.077,-0.018 0.076,-0.015 0.077,-0.011 0.076,-0.009 0.076,-0.004 0.077,-0.002 0.071,0.002 0.072,0.005 0.071,0.007 0.071,0.01 0.072,0.014 0.071,0.016 0.071,0.019 0.072,0.022 0.071,0.025 0.071,0.028 0.071,0.03 0.072,0.034 0.071,0.036 0.071,0.039 0.143,0.085 0.071,0.047 0.072,0.05 0.142,0.107 0.072,0.057 0.071,0.059 0.143,0.126 0.071,0.067 0.071,0.068 0.143,0.144 0.285,0.31 0.072,0.082 0.071,0.084 0.143,0.172 0.285,0.36 0.571,0.765 1.141,1.562 0.07,0.091 0.07,0.09 0.139,0.178 0.28,0.342 0.07,0.082 0.07,0.081 0.14,0.158 0.279,0.297 0.07,0.071 0.07,0.068 0.14,0.133 0.07,0.063 0.07,0.062 0.14,0.119 0.07,0.056 0.07,0.055 0.14,0.104 0.279,0.188 0.07,0.042 0.07,0.041 0.14,0.077 0.07,0.035 0.07,0.034 0.14,0.064 0.07,0.029 0.069,0.028 0.07,0.026 0.07,0.025 0.07,0.023 0.07,0.022 0.14,0.041 0.07,0.018 0.07,0.016 0.07,0.016 0.07,0.015 0.07,0.013 0.07,0.013 0.069,0.011 0.07,0.01 0.07,0.01 0.07,0.009 0.07,0.007 0.07,0.008 0.07,0.006 0.07,0.006 0.07,0.005 0.07,0.004 0.076,0.004 0.076,0.004 0.075,0.003 0.076,0.003 0.076,0.002 0.076,0.002 0.076,10e-4 0.076,10e-4 0.076,0.001 0.075,10e-4 0.076,0 0.076,10e-4 0.076,0 0.076,0 0.076,0 0.076,0 0.075,0 0.076,0 0.076,0 0.076,0 0.076,0 0.076,0 0.076,0 0.076,0 0.075,0 0.076,0 0.076,0 0.076,-10e-4 0.076,0 0.076,-10e-4 0.076,-0.001 0.075,-10e-4 0.076,-10e-4 0.076,-0.002 0.076,-0.002 0.076,-0.003 0.076,-0.003 0.076,-0.005 0.076,-0.004 0.075,-0.006 0.076,-0.006 0.076,-0.008 0.076,-0.008 0.076,-0.01 0.076,-0.011 0.076,-0.012 0.075,-0.014 0.076,-0.015 0.076,-0.017 0.076,-0.019 0.076,-0.021 0.076,-0.023 0.076,-0.025 0.076,-0.027 0.151,-0.062 0.076,-0.035 0.076,-0.037 0.076,-0.041 0.076,-0.044 0.076,-0.047 0.075,-0.05 0.152,-0.111 0.071,-0.057 0.071,-0.06 0.141,-0.131 0.071,-0.07 0.071,-0.075 0.142,-0.16 0.07,-0.086 0.071,-0.091 0.142,-0.193 0.283,-0.439 0.071,-0.121 0.07,-0.126 0.142,-0.266 0.071,-0.141 0.071,-0.145 0.141,-0.305 0.071,-0.16 0.071,-0.166 0.141,-0.345 0.283,-0.752 0.071,-0.2 0.071,-0.206 0.142,-0.426 0.283,-0.91 0.566,-2.039 0.071,-0.274 0.071,-0.277 0.141,-0.565 0.283,-1.169 0.567,-2.456 0.076,-0.34 0.077,-0.342 0.154,-0.685 0.307,-1.371 0.613,-2.674 0.077,-0.322 0.077,-0.318 0.153,-0.624 0.307,-1.186 0.077,-0.283 0.077,-0.276 0.153,-0.533 0.307,-0.976 0.077,-0.224 0.077,-0.216 0.153,-0.405 0.077,-0.189 0.077,-0.18 0.153,-0.33 0.077,-0.15 0.077,-0.139 0.076,-0.13 0.077,-0.119 0.077,-0.108 0.076,-0.098 0.077,-0.086 0.077,-0.076 0.077,-0.065 0.076,-0.053 0.077,-0.042 0.077,-0.03 0.077,-0.02 0.076,-0.007 0.077,0.003 0.077,0.015 0.077,0.027 0.076,0.038 0.077,0.05 0.077,0.061 0.076,0.072 0.077,0.084 0.077,0.095 0.077,0.106 0.075,0.114 0.075,0.125 0.076,0.136 0.075,0.146 0.075,0.156 0.076,0.166 0.15,0.361 0.076,0.195 0.075,0.204 0.151,0.434 0.301,0.971 0.075,0.263 0.076,0.269 0.15,0.561 0.302,1.196 0.602,2.627 0.076,0.344 0.075,0.346 0.151,0.699 0.301,1.412 0.603,2.811 0.075,0.344 0.075,0.342 0.151,0.674 0.301,1.307 0.603,2.395 0.07,0.256 0.07,0.252 0.141,0.488 0.281,0.911 0.07,0.214 0.07,0.208 0.141,0.399 0.281,0.729 0.07,0.167 0.07,0.163 0.141,0.306 0.07,0.145 0.07,0.14 0.141,0.262 0.07,0.123 0.07,0.118 0.141,0.219 0.07,0.102 0.07,0.097 0.141,0.18 0.07,0.083 0.07,0.078 0.071,0.074 0.07,0.069 0.07,0.066 0.07,0.061 0.141,0.111 0.07,0.049 0.07,0.047 0.071,0.043 0.07,0.039 0.07,0.037 0.07,0.033 0.071,0.031 0.07,0.028 0.07,0.026 0.071,0.023 0.07,0.021 0.07,0.019 0.07,0.017 0.071,0.014 0.07,0.014 0.07,0.011 0.07,0.01 0.071,0.009 0.07,0.008 0.07,0.006 0.07,0.006 0.071,0.004 0.07,0.004 0.07,0.003 0.076,0.003 0.076,0.002 0.077,10e-4 0.076,0.001 0.076,10e-4 0.076,10e-4 0.076,0 0.077,0 0.076,0 0.076,0 0.076,0 0.076,0 0.077,0 0.076,0 0.076,0 0.076,0 0.076,0 0.077,0 0.076,-10e-4 0.076,0 0.076,-10e-4 0.076,-0.002 0.077,-0.002 0.076,-0.002 0.076,-0.004 0.076,-0.004 0.076,-0.005 0.077,-0.007 0.076,-0.007 0.076,-0.01 0.076,-0.011 0.076,-0.012 0.077,-0.015 0.076,-0.017 0.076,-0.02 0.076,-0.022 0.076,-0.025 0.077,-0.029 0.076,-0.031 0.076,-0.036 0.076,-0.039 0.076,-0.043 0.077,-0.048 0.076,-0.052 0.076,-0.057 0.076,-0.063 0.153,-0.141 0.076,-0.079 0.076,-0.086 0.076,-0.092 0.076,-0.099 0.077,-0.106 0.076,-0.114 0.152,-0.249 0.076,-0.137 0.077,-0.145 0.152,-0.317 0.076,-0.171 0.076,-0.181 0.153,-0.39 0.071,-0.196 0.071,-0.205 0.142,-0.435 0.071,-0.232 0.071,-0.241 0.143,-0.51 0.071,-0.27 0.071,-0.279 0.142,-0.589 0.285,-1.295 0.071,-0.349 0.071,-0.359 0.142,-0.748 0.285,-1.613 0.071,-0.428 0.071,-0.437 0.142,-0.903 0.285,-1.913 0.071,-0.499 0.071,-0.508 0.142,-1.039 0.285,-2.166 0.569,-4.61 1.137,-9.66 0.077,-0.642 0.078,-0.636 0.154,-1.255 0.308,-2.425 0.077,-0.584 0.077,-0.574 0.154,-1.117 0.308,-2.091 0.078,-0.489 0.077,-0.475 0.154,-0.905 0.077,-0.428 0.077,-0.413 0.154,-0.774 0.077,-0.361 0.077,-0.343 0.077,-0.324 0.077,-0.305 0.077,-0.287 0.077,-0.266 0.077,-0.248 0.078,-0.226 0.077,-0.207 0.077,-0.186 0.077,-0.165 0.077,-0.144 0.077,-0.123 0.077,-0.102 0.077,-0.08 0.077,-0.059 0.077,-0.037 0.077,-0.015 0.077,0.007 0.077,0.028 0.077,0.05 0.077,0.072 0.077,0.093 0.078,0.115 0.077,0.136 0.077,0.157 0.077,0.179 0.077,0.2 0.077,0.22 0.077,0.241 0.154,0.542 0.077,0.3 0.077,0.32 0.154,0.697 0.077,0.375 0.077,0.394 0.155,0.839 0.075,0.436 0.076,0.452 0.151,0.948 0.303,2.06 0.076,0.547 0.075,0.558 0.152,1.147 0.302,2.406 0.076,0.622 0.075,0.628 0.152,1.274 0.302,2.602 0.606,5.286 0.075,0.657 0.076,0.654 0.151,1.299 0.303,2.541 0.076,0.621 0.075,0.615 0.152,1.207 0.302,2.317 0.076,0.557 0.076,0.547 0.151,1.064 0.303,2.001 0.075,0.472 0.076,0.461 0.151,0.887 0.303,1.631 0.07,0.353 0.071,0.342 0.141,0.652 0.071,0.311 0.07,0.3 0.142,0.569 0.07,0.269 0.071,0.259 0.141,0.487 0.071,0.229 0.07,0.22 0.141,0.41 0.071,0.191 0.07,0.182 0.142,0.338 0.07,0.157 0.071,0.147 0.141,0.272 0.071,0.124 0.07,0.117 0.071,0.11 0.07,0.103 0.071,0.096 0.07,0.089 0.142,0.161 0.07,0.072 0.071,0.066 0.07,0.061 0.071,0.056 0.071,0.051 0.07,0.047 0.071,0.042 0.07,0.039 0.071,0.035 0.07,0.031 0.071,0.028 0.071,0.024 0.07,0.022 0.071,0.02 0.07,0.017 0.071,0.014 0.071,0.013 0.07,0.011 0.071,0.009 0.07,0.007 0.071,0.007 0.07,0.005 0.071,0.004 0.071,0.003 0.07,0.003 0.071,10e-4 0.07,0.002 0.071,10e-4 0.071,0 0.07,10e-4 0.071,0 0.07,0 0.077,0 0.076,0 0.077,0 0.076,0 0.077,0 0.077,0 0.076,0 0.077,0 0.076,0 0.077,-10e-4 0.076,-10e-4 0.077,-0.002 0.076,-0.002 0.077,-0.003 0.076,-0.004 0.077,-0.005 0.076,-0.006 0.077,-0.008 0.076,-0.009 0.077,-0.012 0.076,-0.013 0.077,-0.016 0.077,-0.019 0.076,-0.022 0.077,-0.025 0.076,-0.028 0.077,-0.033 0.076,-0.037 0.077,-0.041 0.076,-0.046 0.077,-0.051 0.076,-0.057 0.077,-0.063 0.076,-0.069 0.077,-0.075 0.076,-0.082 0.077,-0.09 0.076,-0.097 0.153,-0.219 0.077,-0.123 0.077,-0.131 0.076,-0.141 0.077,-0.151 0.076,-0.16 0.077,-0.171 0.153,-0.375 0.076,-0.205 0.077,-0.216 0.153,-0.468 0.076,-0.253 0.077,-0.265 0.153,-0.57 0.076,-0.305 0.077,-0.319 0.153,-0.679 0.306,-1.529 0.072,-0.39 0.071,-0.403 0.143,-0.844 0.286,-1.839 0.071,-0.492 0.072,-0.503 0.143,-1.045 0.285,-2.232 0.072,-0.587 0.071,-0.598 0.143,-1.228 0.286,-2.577 0.572,-5.56 0.071,-0.725 0.072,-0.731 0.142,-1.474 0.286,-2.988 0.572,-6.012 0.071,-0.744 0.072,-0.74 0.143,-1.466 0.286,-2.86 0.571,-5.298 0.07,-0.599 0.07,-0.586 0.14,-1.133 0.07,-0.546 0.07,-0.531 0.141,-1.015 0.07,-0.484 0.07,-0.467 0.14,-0.884 0.07,-0.416 0.07,-0.397 0.14,-0.739 0.07,-0.341 0.07,-0.322 0.07,-0.302 0.07,-0.282 0.07,-0.261 0.07,-0.241 0.07,-0.221 0.07,-0.199 0.07,-0.179 0.07,-0.157 0.07,-0.136 0.07,-0.114 0.071,-0.093 0.07,-0.071 0.07,-0.049 0.07,-0.027 0.07,-0.005 0.07,0.016 0.07,0.038 0.07,0.061 0.07,0.082 0.07,0.103 0.07,0.125 0.07,0.147 0.07,0.168 0.07,0.189 0.07,0.21 0.07,0.231 0.07,0.252 0.07,0.272 0.14,0.604 0.071,0.331 0.07,0.351 0.14,0.758 0.07,0.407 0.07,0.424 0.14,0.901 0.07,0.476 0.07,0.492 0.14,1.031 0.28,2.238 0.076,0.644 0.076,0.658 0.152,1.359 0.304,2.861 0.608,6.142 0.076,0.793 0.076,0.796 0.152,1.599 0.304,3.204 0.608,6.282 0.076,0.761 0.076,0.754 0.152,1.485 0.304,2.859 0.076,0.689 0.076,0.679 0.152,1.322 0.304,2.498 0.076,0.592 0.076,0.579 0.152,1.117 0.076,0.537 0.076,0.524 0.152,1.004 0.076,0.481 0.076,0.466 0.152,0.89 0.304,1.607 0.071,0.342 0.071,0.33 0.141,0.624 0.071,0.294 0.071,0.283 0.142,0.53 0.071,0.249 0.071,0.237 0.142,0.442 0.071,0.206 0.071,0.195 0.141,0.361 0.071,0.167 0.071,0.157 0.071,0.148 0.071,0.14 0.071,0.131 0.071,0.123 0.142,0.223 0.071,0.1 0.071,0.094 0.071,0.086 0.07,0.08 0.071,0.075 0.071,0.068 0.071,0.063 0.071,0.057 0.071,0.052 0.071,0.048 0.071,0.043 0.071,0.039 0.071,0.035 0.071,0.031 0.071,0.028 0.07,0.025 0.071,0.022 0.071,0.019 0.071,0.016 0.071,0.015 0.071,0.012 0.071,0.01 0.071,0.009 0.071,0.007 0.071,0.006 0.071,0.005 0.071,0.004 0.07,0.003 0.071,0.002 0.071,0.002 0.071,0.001 0.071,10e-4 0.071,10e-4 0.071,0 0.071,0 0.071,0 0.071,0 0.071,0 0.071,0 0.07,0 0.077,0 0.077,0 0.077,0 0.077,0 0.077,-10e-4 0.077,0 0.076,-10e-4 0.077,-0.002 0.077,-0.002 0.077,-0.003 0.077,-0.004 0.077,-0.005 0.077,-0.007 0.076,-0.008 0.077,-0.009 0.077,-0.012 0.077,-0.014 0.077,-0.016 0.077,-0.019 0.077,-0.021 0.076,-0.025 0.077,-0.029 0.077,-0.032 0.077,-0.037 0.077,-0.04 0.077,-0.046 0.077,-0.05 0.076,-0.056 0.077,-0.061 0.077,-0.068 0.077,-0.073 0.077,-0.08 0.077,-0.088 0.077,-0.094 0.077,-0.102 0.076,-0.109 0.077,-0.118 0.077,-0.127 0.154,-0.279 0.077,-0.153 0.077,-0.163 0.153,-0.356 0.077,-0.194 0.077,-0.204 0.154,-0.441 0.077,-0.238 0.076,-0.248 0.154,-0.533 0.077,-0.284 0.077,-0.297 0.154,-0.629 0.076,-0.333 0.077,-0.346 0.154,-0.729 0.307,-1.607 0.076,-0.425 0.075,-0.436 0.151,-0.908 0.302,-1.952 0.604,-4.396 0.075,-0.591 0.076,-0.598 0.151,-1.218 0.301,-2.512 0.604,-5.219 0.076,-0.66 0.075,-0.66 0.151,-1.319 0.302,-2.609 0.075,-0.644 0.076,-0.638 0.151,-1.26 0.301,-2.436 0.076,-0.588 0.075,-0.579 0.151,-1.126 0.302,-2.112 0.075,-0.495 0.076,-0.482 0.151,-0.921 0.302,-1.653 0.07,-0.347 0.07,-0.332 0.141,-0.618 0.071,-0.285 0.07,-0.269 0.141,-0.488 0.07,-0.219 0.07,-0.202 0.071,-0.184 0.07,-0.167 0.071,-0.15 0.07,-0.131 0.07,-0.114 0.071,-0.096 0.07,-0.079 0.071,-0.06 0.07,-0.041 0.07,-0.024 0.071,-0.006 0.07,0.013 0.07,0.03 0.071,0.049 0.07,0.067 0.071,0.084 0.07,0.103 0.07,0.12 0.071,0.138 0.07,0.155 0.07,0.173 0.071,0.189 0.07,0.207 0.071,0.224 0.14,0.496 0.071,0.273 0.07,0.288 0.141,0.623 0.07,0.334 0.071,0.349 0.14,0.74 0.282,1.641 0.07,0.441 0.071,0.453 0.14,0.94 0.282,2.003 0.563,4.396 0.076,0.626 0.077,0.632 0.152,1.277 0.306,2.591 0.61,5.205 0.077,0.642 0.076,0.639 0.153,1.264 0.305,2.463 0.61,4.578 0.077,0.532 0.076,0.523 0.153,1.016 0.305,1.905 0.076,0.449 0.077,0.438 0.152,0.842 0.306,1.545 0.076,0.358 0.076,0.346 0.153,0.658 0.076,0.312 0.077,0.301 0.152,0.567 0.076,0.267 0.077,0.257 0.152,0.481 0.077,0.224 0.076,0.215 0.153,0.399 0.071,0.173 0.071,0.165 0.143,0.306 0.071,0.142 0.071,0.134 0.143,0.246 0.071,0.113 0.071,0.106 0.071,0.1 0.072,0.094 0.071,0.087 0.071,0.082 0.143,0.148 0.071,0.066 0.071,0.061 0.071,0.056 0.072,0.052 0.071,0.048 0.071,0.044 0.071,0.04 0.072,0.036 0.071,0.033 0.071,0.03 0.071,0.027 0.072,0.024 0.071,0.022 0.071,0.019 0.071,0.017 0.072,0.014 0.071,0.013 0.071,0.012 0.071,0.009 0.072,0.009 0.071,0.007 0.071,0.005 0.071,0.005 0.072,0.004 0.071,0.003 0.071,0.003 0.071,0.002 0.072,10e-4 0.071,0.001 0.071,10e-4 0.071,10e-4 0.072,0 0.071,0 0.071,0 0.071,0 0.072,0 0.071,0 0.071,0 0.071,0 0.072,0 0.071,0 0.071,0 0.071,0 0.072,0 0.071,-10e-4 0.071,0 0.071,-10e-4 0.072,-0.001 0.069,-0.002 0.07,-0.002 0.07,-0.002 0.07,-0.004 0.07,-0.003 0.07,-0.005 0.07,-0.006 0.069,-0.006 0.07,-0.008 0.07,-0.009 0.07,-0.01 0.07,-0.012 0.07,-0.013 0.069,-0.015 0.07,-0.017 0.07,-0.019 0.07,-0.021 0.07,-0.024 0.07,-0.025 0.069,-0.028 0.07,-0.031 0.07,-0.034 0.14,-0.076 0.07,-0.043 0.07,-0.046 0.069,-0.05 0.07,-0.053 0.07,-0.057 0.07,-0.061 0.14,-0.134 0.069,-0.074 0.07,-0.078 0.14,-0.169 0.07,-0.092 0.07,-0.096 0.139,-0.208 0.07,-0.111 0.07,-0.117 0.14,-0.25 0.279,-0.564 0.07,-0.155 0.07,-0.16 0.139,-0.339 0.28,-0.745 0.07,-0.2 0.07,-0.206 0.139,-0.429 0.28,-0.924 0.075,-0.266 0.076,-0.271 0.152,-0.56 0.303,-1.187 0.606,-2.598 0.076,-0.341 0.076,-0.344 0.151,-0.695 0.304,-1.413 0.606,-2.84 0.076,-0.35 0.075,-0.348 0.152,-0.688 0.303,-1.336 0.076,-0.323 0.076,-0.319 0.151,-0.621 0.303,-1.171 0.076,-0.276 0.076,-0.269 0.152,-0.515 0.075,-0.245 0.076,-0.237 0.152,-0.449 0.076,-0.21 0.075,-0.202 0.152,-0.375 0.076,-0.172 0.075,-0.163 0.152,-0.295 0.071,-0.124 0.07,-0.114 0.071,-0.105 0.071,-0.095 0.071,-0.086 0.07,-0.077 0.071,-0.067 0.071,-0.057 0.07,-0.048 0.071,-0.038 0.071,-0.028 0.071,-0.018 0.07,-0.009 0.071,10e-4 0.071,0.011 0.07,0.02 0.071,0.031 0.071,0.039 0.071,0.05 0.07,0.059 0.071,0.068 0.071,0.078 0.07,0.087 0.071,0.096 0.071,0.106 0.071,0.114 0.07,0.123 0.071,0.132 0.071,0.141 0.07,0.149 0.142,0.322 0.071,0.174 0.07,0.181 0.142,0.385 0.283,0.857 0.07,0.231 0.071,0.237 0.141,0.492 0.283,1.049 0.071,0.274 0.071,0.279 0.141,0.57 0.283,1.182 0.566,2.478 0.076,0.342 0.077,0.342 0.153,0.686 0.307,1.365 0.613,2.643 0.077,0.318 0.076,0.314 0.154,0.616 0.306,1.182 0.077,0.284 0.077,0.279 0.153,0.542 0.307,1.021 0.076,0.241 0.077,0.235 0.153,0.454 0.077,0.218 0.076,0.212 0.154,0.406 0.076,0.194 0.077,0.189 0.153,0.359 0.307,0.647 0.077,0.148 0.076,0.142 0.154,0.267 0.076,0.125 0.077,0.12 0.153,0.225 0.077,0.104 0.077,0.1 0.153,0.185 0.077,0.085 0.076,0.081 0.154,0.149 0.071,0.064 0.072,0.06 0.071,0.057 0.072,0.054 0.071,0.05 0.072,0.047 0.143,0.086 0.072,0.039 0.071,0.036 0.072,0.034 0.071,0.031 0.072,0.029 0.072,0.027 0.143,0.047 0.071,0.021 0.072,0.019 0.072,0.017 0.071,0.016 0.072,0.014 0.071,0.013 0.072,0.012 0.071,0.01 0.072,0.009 0.072,0.008 0.071,0.007 0.072,0.007 0.071,0.005 0.072,0.005 0.071,0.004 0.072,0.003 0.072,0.003 0.071,0.003 0.072,0.002 0.071,0.001 0.072,0.002 0.072,0.001 0.071,0 0.072,10e-4 0.071,0 0.072,10e-4 0.071,0 0.072,0 0.072,0 0.071,0 0.072,0 0.071,0 0.072,0 0.071,0 0.072,0 0.072,0 0.071,0 0.072,0 0.071,0 0.072,0 0.072,0 0.071,0 0.072,-10e-4 0.071,0 0.072,-10e-4 0.071,-0.001 0.072,-10e-4 0.072,-10e-4 0.07,-0.001 0.07,-0.002 0.07,-0.003 0.07,-0.002 0.07,-0.003 0.071,-0.004 0.07,-0.004 0.07,-0.004 0.07,-0.005 0.07,-0.006 0.07,-0.007 0.071,-0.007 0.07,-0.008 0.07,-0.009 0.07,-0.01 0.07,-0.011 0.071,-0.011 0.07,-0.013 0.07,-0.014 0.07,-0.014 0.07,-0.017 0.07,-0.017 0.141,-0.038 0.07,-0.021 0.07,-0.023 0.14,-0.049 0.071,-0.027 0.07,-0.028 0.14,-0.061 0.07,-0.033 0.071,-0.035 0.14,-0.074 0.07,-0.04 0.07,-0.041 0.141,-0.089 0.07,-0.046 0.07,-0.049 0.14,-0.102 0.281,-0.226 0.07,-0.061 0.07,-0.063 0.141,-0.13 0.28,-0.282 0.562,-0.636 0.076,-0.093 0.076,-0.095 0.152,-0.193 0.305,-0.399 0.609,-0.833 0.076,-0.106 0.076,-0.105 0.152,-0.211 0.305,-0.417 0.609,-0.791 0.076,-0.093 0.076,-0.092 0.152,-0.177 0.076,-0.086 0.076,-0.083 0.153,-0.161 0.076,-0.077 0.076,-0.075 0.152,-0.142 0.076,-0.067 0.076,-0.065 0.153,-0.121 0.076,-0.056 0.076,-0.053 0.076,-0.051 0.076,-0.047 0.076,-0.044 0.076,-0.041 0.076,-0.038 0.076,-0.035 0.077,-0.032 0.076,-0.028 0.076,-0.025 0.076,-0.022 0.076,-0.019 0.076,-0.015 0.076,-0.012 0.076,-0.008 0.071,-0.005 0.072,-0.003 0.071,0.001 0.071,0.004 0.071,0.006 0.071,0.009 0.071,0.013 0.071,0.015 0.071,0.017 0.071,0.021 0.071,0.023 0.071,0.026 0.071,0.029 0.071,0.031 0.142,0.071 0.071,0.039 0.071,0.041 0.142,0.091 0.071,0.049 0.071,0.051 0.142,0.108 0.071,0.058 0.072,0.06 0.142,0.125 0.284,0.273 0.071,0.072 0.071,0.074 0.142,0.152 0.284,0.32 0.568,0.686 1.137,1.43 0.077,0.094 0.077,0.094 0.154,0.185 0.308,0.359 0.077,0.087 0.077,0.086 0.154,0.167 0.308,0.32 0.077,0.077 0.077,0.075 0.154,0.145 0.308,0.271 0.077,0.064 0.077,0.062 0.154,0.12 0.308,0.219 0.077,0.051 0.077,0.049 0.154,0.094 0.077,0.044 0.077,0.043 0.154,0.08 0.077,0.038 0.077,0.037 0.154,0.069 0.077,0.032 0.077,0.031 0.154,0.057 0.076,0.027 0.077,0.026 0.154,0.047 0.077,0.022 0.077,0.02 0.154,0.039 0.077,0.017 0.077,0.016 0.077,0.016 0.077,0.014 0.077,0.014 0.077,0.013 0.154,0.023 0.076,0.01 0.075,0.009 0.076,0.009 0.076,0.008 0.075,0.007 0.076,0.007 0.075,0.006 0.076,0.006 0.076,0.005 0.075,0.005 0.076,0.005 0.075,0.004 0.076,0.003 0.075,0.003 0.076,0.003 0.076,0.003 0.075,0.002 0.076,0.002 0.075,0.002 0.076,0.001 0.076,0.002 0.075,0.001 0.076,10e-4 0.075,10e-4 0.076,0.001 0.075,0 0.076,10e-4 0.076,0 0.075,0 0.076,10e-4 0.075,0 0.076,0 0.076,0 0.075,0 0.076,0 0.075,0 0.076,0 0.075,0 0.076,0 0.076,0 0.075,0 0.076,0 0.075,0 0.076,0 0.076,0 0.075,0 0.076,0 0.075,0 0.076,0 0.075,0 0.076,0 0.076,0 0.075,0 0.076,0 0.075,0 0.076,-10e-4 0.076,0 0.075,0 0.076,-10e-4 0.075,0 0.076,-0.001 0.075,0 0.076,-10e-4 0.076,-10e-4 0.07,-0.001 0.071,-10e-4 0.07,-10e-4 0.071,-0.001 0.07,-0.002 0.071,-0.001 0.141,-0.003 0.07,-0.002 0.071,-0.002 0.07,-0.002 0.071,-0.003 0.07,-0.002 0.071,-0.003 0.141,-0.005 0.07,-0.004 0.071,-0.003 0.141,-0.007 0.07,-0.004 0.071,-0.004 0.141,-0.009 0.07,-0.004 0.071,-0.005 0.141,-0.011 0.282,-0.022 0.07,-0.006 0.071,-0.007 0.141,-0.013 0.282,-0.029 0.564,-0.064 0.07,-0.009 0.071,-0.008 0.141,-0.018 0.282,-0.036 0.564,-0.075 0.077,-0.01 0.076,-0.01 0.153,-0.02 0.306,-0.038 0.076,-0.01 0.077,-0.009 0.152,-0.018 0.306,-0.034 0.077,-0.008 0.076,-0.008 0.153,-0.015 0.077,-0.007 0.076,-0.007 0.153,-0.013 0.076,-0.006 0.077,-0.005 0.076,-0.006 0.077,-0.005 0.076,-0.005 0.077,-0.005 0.152,-0.008 0.077,-0.003 0.076,-0.004 0.077,-0.003 0.076,-0.003 0.077,-0.002 0.076,-0.002 0.077,-0.002 0.076,-10e-4 0.077,-0.001 0.076,-10e-4 0.076,0 0.077,0 0.076,0 0.077,10e-4 0.076,0.001 0.077,10e-4 0.076,10e-4 0.077,0.002 0.076,0.002 0.076,0.003 0.077,0.003 0.076,0.003 0.077,0.003 0.076,0.004 0.077,0.003 0.076,0.005 0.153,0.009 0.077,0.005 0.076,0.005 0.153,0.011 0.071,0.005 0.072,0.006 0.142,0.012 0.286,0.026 0.571,0.057 0.071,0.008 0.072,0.007 0.142,0.016 0.286,0.032 0.571,0.064 0.071,0.008 0.072,0.007 0.142,0.016 0.286,0.031 0.071,0.008 0.072,0.007 0.142,0.015 0.286,0.028 0.071,0.007 0.072,0.007 0.142,0.013 0.286,0.025 0.071,0.006 0.072,0.006 0.142,0.011 0.286,0.022 0.07,0.004 0.07,0.005 0.14,0.009 0.28,0.018 0.07,0.004 0.07,0.003 0.139,0.008 0.28,0.013 0.07,0.003 0.07,0.003 0.14,0.006 0.07,0.003 0.07,0.002 0.14,0.005 0.07,0.002 0.07,0.003 0.14,0.004 0.07,0.002 0.07,0.002 0.14,0.003 0.07,0.002 0.07,10e-4 0.14,0.003 0.07,0.002 0.07,10e-4 0.14,0.002 0.07,10e-4 0.07,0.001 0.14,0.002 0.069,0.001 0.07,10e-4 0.14,10e-4 0.07,0.001 0.07,10e-4 0.07,0 0.07,10e-4 0.07,0 0.07,0.001 0.14,10e-4 0.07,0 0.07,10e-4 0.07,0 0.07,0 0.07,0.001 0.07,0 0.07,0 0.07,0 0.076,0 0.076,10e-4 0.076,0 0.076,0 0.076,0 0.075,0 0.076,0 0.076,10e-4 0.076,0 0.076,0 0.076,0 0.076,0 0.076,0 0.076,0 0.076,0 0.076,0 0.075,0 0.076,0 0.076,0 0.076,0 0.076,0 0.076,0 0.076,0 0.076,0 0.076,0 0.076,0 0.076,0 0.076,0 0.075,0 0.076,0 0.076,0 0.076,0 0.076,0 0.076,0 0.076,0 0.076,0 0.076,0 0.076,0 0.076,0 0.076,0 0.075,0 0.076,0 0.076,0 0.076,0 0.076,0 0.076,0 0.076,0 0.076,0 0.076,0 0.076,0 0.076,0 0.076,0 0.075,0 0.076,0 0.076,0 0.076,0 0.076,0 0.076,0 0.076,0 0.076,0 0.076,0 0.076,0 0.151,0 0.071,0 0.071,0 0.142,0 0.071,0 0.071,0 0.141,0 0.071,0 0.071,0 0.142,0 0.283,0 0.071,0 0.071,0 0.141,0 0.284,0 0.07,0 0.071,0 0.142,0 0.071,0 0.071,0 0.141,0 0.071,0 0.071,0 0.071,0 0.071,0 0.07,0 0.071,0 0.071,0 0.071,0 0.071,0 0.071,0 0.071,0 0.07,0 0.071,0 0.071,0 0.071,0 0.071,0 0.071,0 0.07,0 0.071,0 0.071,0 0.071,0 0.071,0 0.071,0 0.07,0 0.071,0 0.071,0 0.142,0 0.071,0 0.07,0 0.142,0 0.079,0 0.079,0 0.158,0 0.317,0 0.079,0 0.079,0 0.158,0 0.316,0 0.079,0 0.079,0 0.159,0 0.079,0 0.079,0 0.158,0 0.079,0 0.079,0 0.158,0 0.079,0 0.079,0 0.159,0 0.079,0 0.079,0 0.079,0 0.079,0 0.079,0 0.079,0 0.079,0 0.079,0 0.079,0 0.079,0 0.079,0 0.079,0 0.08,0 0.079,0 0.079,0 0.079,0 0.079,0 0.079,0 0.079,0 0.079,0 0.079,0 0.079,0 0.079,0 0.079,0 0.079,0 0.08,0 0.079,0 0.079,0 0.079,0 0.079,0 0.079,0 0.079,0"
                     style="fill:none;stroke:#3f3d99;stroke-opacity:1;stroke-width:0.4;stroke-linecap:square;stroke-linejoin:miter;stroke-miterlimit:3.25;stroke-dasharray:none"
                     id="path3041" /><path
                     d="m 50.668,145.595 0.068,0 0.069,0 0.136,0 0.274,0 0.547,0 0.069,0 0.068,0 0.137,0 0.068,0 0.069,0 0.137,0 0.068,0 0.068,0 0.137,0 0.069,0 0.068,0 0.137,0 0.068,0 0.069,0 0.068,0 0.069,0 0.068,0 0.068,0 0.069,0 0.068,0 0.069,0 0.068,0 0.069,0 0.068,0 0.068,0 0.069,0 0.068,0 0.069,0 0.068,0 0.068,0 0.069,0 0.068,0 0.069,0 0.068,0 0.068,0 0.069,0 0.274,0 0.273,0 0.149,0 0.148,0 0.074,0 0.074,0 0.074,0 0.075,0 0.074,0 0.074,0 0.074,0 0.074,0 0.074,0 0.075,0 0.074,0 0.074,0 0.074,0 0.074,0 0.074,0 0.075,0 0.074,0 0.074,0 0.074,0 0.074,0 0.074,0 0.075,0 0.074,-0.001 0.074,0 0.074,0 0.074,0 0.074,0 0.075,0 0.074,0 0.074,0 0.074,-0.001 0.074,0 0.074,0 0.075,0 0.074,0 0.074,-10e-4 0.074,0 0.074,0 0.074,-0.001 0.075,0 0.074,-0.001 0.074,0 0.148,-0.001 0.074,-0.001 0.075,0 0.074,-0.001 0.074,-10e-4 0.074,-0.001 0.074,0 0.149,-0.002 0.074,-0.001 0.074,-0.001 0.148,-0.003 0.074,-0.001 0.075,-0.001 0.148,-0.003 0.069,-0.001 0.069,-0.002 0.139,-0.003 0.069,-0.002 0.07,-0.002 0.138,-0.004 0.069,-0.002 0.07,-0.002 0.138,-0.004 0.277,-0.011 0.069,-0.002 0.07,-0.003 0.138,-0.006 0.069,-0.004 0.07,-0.003 0.138,-0.007 0.069,-0.004 0.07,-0.003 0.138,-0.008 0.277,-0.017 0.069,-0.005 0.07,-0.005 0.138,-0.009 0.277,-0.021 0.554,-0.047 0.069,-0.006 0.07,-0.007 0.138,-0.013 0.277,-0.027 0.554,-0.059 0.068,-0.007 0.068,-0.008 0.136,-0.015 0.271,-0.03 0.544,-0.061 0.067,-0.007 0.068,-0.008 0.136,-0.015 0.272,-0.028 0.068,-0.007 0.067,-0.007 0.136,-0.014 0.272,-0.025 0.068,-0.006 0.068,-0.006 0.135,-0.011 0.068,-0.006 0.068,-0.005 0.136,-0.01 0.068,-0.005 0.068,-0.005 0.136,-0.008 0.067,-0.004 0.068,-0.004 0.136,-0.007 0.068,-0.003 0.068,-0.003 0.068,-0.002 0.068,-0.003 0.068,-0.002 0.068,-0.002 0.067,-0.001 0.068,-0.002 0.068,-0.001 0.068,-10e-4 0.068,-0.001 0.068,0 0.068,0 0.068,0 0.068,0 0.067,0 0.074,0.001 0.074,0.002 0.073,0.001 0.074,0.002 0.074,0.002 0.073,0.003 0.074,0.002 0.074,0.003 0.073,0.004 0.074,0.003 0.074,0.004 0.073,0.004 0.074,0.005 0.074,0.005 0.147,0.01 0.074,0.006 0.073,0.006 0.147,0.012 0.295,0.028 0.074,0.007 0.073,0.008 0.148,0.016 0.294,0.034 0.074,0.009 0.074,0.009 0.147,0.018 0.294,0.038 0.59,0.077 0.073,0.01 0.074,0.01 0.147,0.019 0.295,0.037 0.589,0.07 0.069,0.007 0.069,0.007 0.137,0.015 0.275,0.026 0.069,0.006 0.068,0.007 0.138,0.011 0.275,0.021 0.069,0.005 0.068,0.004 0.138,0.009 0.068,0.004 0.069,0.004 0.138,0.007 0.068,0.003 0.069,0.004 0.069,0.003 0.069,0.002 0.068,0.003 0.069,0.003 0.138,0.004 0.068,0.002 0.069,0.002 0.069,0.002 0.068,0.002 0.069,0.001 0.069,0.001 0.069,0.002 0.068,10e-4 0.069,0.001 0.069,0.001 0.069,0.001 0.068,0.001 0.069,0 0.069,0.001 0.069,0 0.068,10e-4 0.069,0 0.069,0.001 0.069,0 0.068,0 0.069,0 0.069,0.001 0.068,0 0.069,0 0.069,0 0.069,0 0.068,0 0.069,0 0.069,0 0.069,0 0.068,0 0.069,0 0.075,0 0.074,0 0.075,0 0.074,0 0.075,0 0.074,0 0.074,0 0.075,0 0.074,0 0.075,0 0.074,0 0.075,0 0.074,0 0.075,0 0.074,-0.001 0.075,0 0.074,0 0.075,-0.001 0.074,0 0.075,-10e-4 0.074,0 0.075,-0.001 0.074,-0.001 0.075,-0.001 0.074,-0.001 0.075,-0.002 0.074,-0.002 0.075,-0.001 0.074,-0.003 0.075,-0.002 0.074,-0.003 0.075,-0.003 0.074,-0.003 0.075,-0.004 0.074,-0.004 0.075,-0.005 0.074,-0.005 0.075,-0.005 0.149,-0.013 0.074,-0.007 0.075,-0.007 0.074,-0.009 0.075,-0.009 0.074,-0.009 0.075,-0.01 0.149,-0.023 0.074,-0.013 0.075,-0.013 0.148,-0.03 0.075,-0.016 0.074,-0.017 0.149,-0.037 0.075,-0.02 0.074,-0.021 0.149,-0.046 0.075,-0.025 0.074,-0.026 0.149,-0.055 0.073,-0.029 0.074,-0.031 0.146,-0.064 0.073,-0.034 0.073,-0.036 0.146,-0.075 0.074,-0.04 0.073,-0.041 0.146,-0.087 0.292,-0.19 0.074,-0.052 0.073,-0.052 0.146,-0.111 0.293,-0.238 0.073,-0.063 0.073,-0.064 0.146,-0.134 0.293,-0.284 0.073,-0.074 0.073,-0.075 0.146,-0.155 0.293,-0.324 0.585,-0.693 1.17,-1.47 0.068,-0.085 0.068,-0.084 0.137,-0.167 0.272,-0.325 0.069,-0.079 0.068,-0.078 0.136,-0.152 0.273,-0.291 0.068,-0.069 0.069,-0.068 0.136,-0.13 0.068,-0.063 0.068,-0.061 0.137,-0.117 0.068,-0.055 0.068,-0.054 0.137,-0.101 0.068,-0.047 0.068,-0.045 0.137,-0.084 0.068,-0.039 0.068,-0.036 0.068,-0.034 0.068,-0.031 0.069,-0.029 0.068,-0.027 0.068,-0.024 0.068,-0.021 0.069,-0.019 0.068,-0.017 0.068,-0.014 0.068,-0.011 0.068,-0.009 0.069,-0.006 0.068,-0.003 0.068,-0.001 0.068,0.002 0.069,0.005 0.068,0.007 0.068,0.01 0.068,0.012 0.068,0.016 0.069,0.018 0.068,0.02 0.068,0.023 0.068,0.026 0.068,0.028 0.069,0.031 0.068,0.034 0.068,0.036 0.137,0.079 0.073,0.048 0.074,0.05 0.148,0.108 0.074,0.058 0.074,0.061 0.148,0.129 0.074,0.069 0.074,0.07 0.148,0.149 0.296,0.321 0.074,0.085 0.074,0.087 0.148,0.179 0.296,0.375 0.592,0.796 0.074,0.102 0.074,0.103 0.147,0.205 0.296,0.409 0.592,0.795 0.074,0.095 0.074,0.094 0.148,0.185 0.296,0.353 0.074,0.085 0.074,0.083 0.148,0.161 0.296,0.3 0.069,0.066 0.069,0.064 0.138,0.124 0.069,0.059 0.069,0.057 0.138,0.11 0.069,0.052 0.069,0.051 0.138,0.096 0.277,0.171 0.069,0.039 0.069,0.037 0.138,0.069 0.069,0.032 0.069,0.031 0.138,0.056 0.069,0.027 0.069,0.024 0.069,0.024 0.069,0.022 0.069,0.02 0.069,0.02 0.138,0.035 0.069,0.015 0.07,0.015 0.069,0.014 0.069,0.012 0.069,0.012 0.069,0.01 0.069,0.01 0.069,0.009 0.069,0.008 0.069,0.007 0.069,0.007 0.069,0.005 0.069,0.006 0.069,0.004 0.069,0.004 0.069,0.004 0.069,0.003 0.069,0.003 0.069,0.002 0.069,0.002 0.07,0.001 0.069,0.002 0.069,0.001 0.069,10e-4 0.069,0 0.069,0.001 0.069,0 0.069,0.001 0.069,0 0.069,0 0.069,0 0.069,0 0.068,0 0.068,0 0.067,0 0.068,0 0.068,0 0.067,0 0.068,0 0.068,0 0.067,0 0.068,0 0.068,0 0.068,0 0.067,-0.001 0.068,0 0.068,0 0.067,-0.001 0.068,-10e-4 0.068,-0.001 0.067,-0.001 0.068,-0.002 0.068,-0.002 0.067,-0.002 0.068,-0.003 0.068,-0.003 0.068,-0.004 0.067,-0.005 0.068,-0.005 0.068,-0.005 0.067,-0.007 0.068,-0.007 0.068,-0.009 0.067,-0.009 0.068,-0.01 0.068,-0.012 0.068,-0.013 0.067,-0.014 0.068,-0.015 0.068,-0.017 0.135,-0.038 0.068,-0.022 0.067,-0.023 0.068,-0.025 0.068,-0.028 0.068,-0.029 0.067,-0.031 0.136,-0.07 0.067,-0.039 0.068,-0.041 0.135,-0.09 0.068,-0.049 0.068,-0.052 0.135,-0.112 0.068,-0.062 0.068,-0.064 0.135,-0.139 0.068,-0.074 0.067,-0.079 0.136,-0.167 0.073,-0.097 0.074,-0.102 0.147,-0.218 0.073,-0.116 0.073,-0.121 0.147,-0.257 0.074,-0.136 0.073,-0.141 0.147,-0.298 0.294,-0.661 0.073,-0.179 0.074,-0.184 0.147,-0.385 0.294,-0.834 0.073,-0.222 0.073,-0.228 0.147,-0.47 0.294,-1.001 0.074,-0.263 0.073,-0.267 0.147,-0.548 0.294,-1.146 0.587,-2.458 1.176,-5.209 0.068,-0.3 0.069,-0.298 0.137,-0.59 0.274,-1.148 0.068,-0.279 0.069,-0.276 0.137,-0.539 0.274,-1.025 0.069,-0.243 0.068,-0.239 0.137,-0.46 0.069,-0.221 0.068,-0.216 0.138,-0.411 0.068,-0.195 0.069,-0.189 0.137,-0.356 0.068,-0.167 0.069,-0.159 0.137,-0.296 0.068,-0.136 0.069,-0.128 0.068,-0.12 0.069,-0.111 0.068,-0.103 0.069,-0.095 0.069,-0.086 0.068,-0.077 0.069,-0.068 0.068,-0.059 0.069,-0.051 0.068,-0.041 0.069,-0.033 0.068,-0.023 0.069,-0.015 0.068,-0.005 0.069,0.004 0.068,0.013 0.069,0.023 0.069,0.031 0.068,0.041 0.069,0.049 0.068,0.059 0.069,0.068 0.068,0.077 0.069,0.085 0.068,0.095 0.069,0.103 0.068,0.113 0.069,0.12 0.137,0.267 0.074,0.159 0.075,0.168 0.148,0.365 0.074,0.196 0.075,0.205 0.148,0.435 0.075,0.231 0.074,0.238 0.148,0.5 0.298,1.086 0.074,0.287 0.074,0.294 0.149,0.604 0.297,1.267 0.594,2.7 0.075,0.347 0.074,0.348 0.148,0.698 0.298,1.394 0.594,2.721 0.074,0.328 0.075,0.325 0.148,0.639 0.297,1.225 0.075,0.295 0.074,0.289 0.148,0.564 0.298,1.059 0.073,0.245 0.072,0.24 0.146,0.462 0.073,0.221 0.073,0.216 0.146,0.412 0.073,0.197 0.073,0.191 0.146,0.363 0.291,0.652 0.073,0.147 0.073,0.142 0.146,0.265 0.073,0.124 0.073,0.119 0.146,0.22 0.073,0.101 0.073,0.097 0.073,0.091 0.073,0.087 0.073,0.081 0.073,0.077 0.145,0.139 0.073,0.063 0.073,0.059 0.073,0.055 0.073,0.051 0.073,0.047 0.073,0.043 0.073,0.041 0.073,0.036 0.073,0.034 0.073,0.031 0.073,0.027 0.073,0.026 0.073,0.022 0.072,0.021 0.073,0.018 0.073,0.016 0.073,0.014 0.073,0.013 0.073,0.01 0.073,0.01 0.073,0.008 0.073,0.007 0.073,0.005 0.073,0.005 0.073,0.004 0.073,0.003 0.073,0.003 0.073,0.002 0.072,0.001 0.073,10e-4 0.073,0.001 0.073,0 0.068,0.001 0.068,0 0.068,0 0.068,0 0.068,0 0.068,0 0.068,0 0.068,0 0.068,0 0.068,0 0.068,0 0.068,0 0.068,0 0.068,-0.001 0.069,0 0.068,-0.001 0.068,-10e-4 0.068,-0.001 0.068,-0.002 0.068,-0.002 0.068,-0.003 0.068,-0.003 0.068,-0.004 0.068,-0.005 0.068,-0.006 0.068,-0.007 0.068,-0.008 0.068,-0.01 0.068,-0.011 0.068,-0.012 0.068,-0.015 0.068,-0.016 0.068,-0.018 0.068,-0.02 0.068,-0.023 0.068,-0.025 0.068,-0.028 0.068,-0.031 0.068,-0.034 0.068,-0.037 0.068,-0.041 0.068,-0.044 0.068,-0.047 0.068,-0.052 0.068,-0.056 0.068,-0.06 0.136,-0.134 0.068,-0.075 0.068,-0.079 0.068,-0.085 0.068,-0.09 0.068,-0.096 0.068,-0.101 0.136,-0.222 0.068,-0.12 0.068,-0.127 0.136,-0.274 0.068,-0.148 0.068,-0.155 0.136,-0.332 0.074,-0.193 0.074,-0.203 0.147,-0.433 0.074,-0.231 0.074,-0.241 0.148,-0.512 0.073,-0.272 0.074,-0.282 0.148,-0.595 0.295,-1.319 0.073,-0.357 0.074,-0.367 0.148,-0.767 0.295,-1.662 0.074,-0.441 0.073,-0.452 0.148,-0.934 0.295,-1.983 0.074,-0.519 0.074,-0.528 0.147,-1.081 0.295,-2.254 0.59,-4.802 1.181,-10.011 0.069,-0.568 0.068,-0.564 0.138,-1.112 0.276,-2.15 0.068,-0.52 0.069,-0.512 0.138,-0.999 0.275,-1.882 0.069,-0.445 0.069,-0.433 0.138,-0.832 0.069,-0.398 0.069,-0.385 0.137,-0.731 0.069,-0.345 0.069,-0.331 0.138,-0.619 0.069,-0.288 0.068,-0.273 0.138,-0.499 0.069,-0.226 0.069,-0.21 0.069,-0.194 0.069,-0.177 0.068,-0.161 0.069,-0.145 0.069,-0.128 0.069,-0.11 0.069,-0.094 0.069,-0.077 0.069,-0.059 0.068,-0.042 0.069,-0.025 0.069,-0.007 0.069,0.009 0.069,0.028 0.069,0.044 0.069,0.062 0.068,0.079 0.069,0.097 0.069,0.113 0.069,0.131 0.069,0.147 0.069,0.165 0.069,0.181 0.068,0.197 0.069,0.214 0.069,0.23 0.069,0.246 0.069,0.262 0.138,0.57 0.074,0.334 0.075,0.351 0.149,0.754 0.075,0.401 0.074,0.417 0.15,0.88 0.074,0.462 0.075,0.476 0.149,0.993 0.298,2.132 0.075,0.561 0.075,0.571 0.149,1.169 0.298,2.434 0.597,5.118 0.075,0.652 0.074,0.653 0.15,1.306 0.298,2.597 0.597,5.021 0.075,0.602 0.074,0.594 0.149,1.167 0.299,2.233 0.074,0.535 0.075,0.525 0.149,1.021 0.299,1.913 0.073,0.442 0.073,0.432 0.147,0.83 0.073,0.398 0.073,0.387 0.147,0.74 0.073,0.352 0.073,0.342 0.147,0.649 0.293,1.164 0.073,0.263 0.073,0.253 0.147,0.474 0.073,0.221 0.073,0.211 0.147,0.392 0.073,0.182 0.073,0.172 0.147,0.317 0.073,0.146 0.073,0.137 0.147,0.249 0.073,0.113 0.073,0.106 0.074,0.099 0.073,0.091 0.073,0.085 0.073,0.079 0.147,0.139 0.073,0.061 0.073,0.056 0.074,0.051 0.073,0.046 0.073,0.042 0.073,0.037 0.074,0.034 0.073,0.03 0.073,0.027 0.073,0.023 0.074,0.021 0.073,0.018 0.073,0.015 0.073,0.014 0.074,0.011 0.073,0.009 0.073,0.008 0.073,0.007 0.074,0.005 0.073,0.004 0.073,0.003 0.073,0.003 0.074,0.002 0.073,10e-4 0.068,0.001 0.069,0 0.068,0.001 0.068,0 0.069,0 0.068,0 0.068,0 0.069,0 0.068,0 0.068,0 0.069,0 0.068,0 0.068,0 0.069,0 0.068,-0.001 0.068,0 0.069,-0.001 0.068,-0.002 0.068,-0.001 0.069,-0.003 0.068,-0.003 0.068,-0.003 0.069,-0.005 0.068,-0.006 0.068,-0.007 0.069,-0.008 0.068,-0.01 0.068,-0.012 0.069,-0.013 0.068,-0.016 0.068,-0.017 0.069,-0.021 0.068,-0.023 0.068,-0.025 0.069,-0.029 0.068,-0.032 0.068,-0.036 0.069,-0.04 0.068,-0.043 0.069,-0.048 0.068,-0.053 0.068,-0.057 0.069,-0.062 0.068,-0.067 0.068,-0.073 0.069,-0.079 0.136,-0.175 0.069,-0.098 0.068,-0.104 0.068,-0.112 0.069,-0.118 0.068,-0.126 0.068,-0.134 0.137,-0.292 0.068,-0.159 0.069,-0.167 0.136,-0.362 0.069,-0.195 0.068,-0.204 0.137,-0.439 0.074,-0.254 0.074,-0.267 0.148,-0.57 0.074,-0.304 0.074,-0.317 0.148,-0.674 0.074,-0.356 0.075,-0.37 0.148,-0.781 0.296,-1.725 0.074,-0.466 0.074,-0.479 0.148,-0.998 0.297,-2.158 0.074,-0.571 0.074,-0.585 0.148,-1.205 0.297,-2.552 0.074,-0.665 0.074,-0.676 0.148,-1.381 0.296,-2.868 0.593,-6.053 1.186,-12.334 0.069,-0.686 0.069,-0.68 0.138,-1.335 0.277,-2.562 0.069,-0.614 0.069,-0.603 0.139,-1.17 0.276,-2.181 0.07,-0.51 0.069,-0.494 0.138,-0.941 0.069,-0.446 0.069,-0.429 0.139,-0.807 0.069,-0.376 0.069,-0.358 0.069,-0.34 0.07,-0.32 0.069,-0.302 0.069,-0.282 0.138,-0.504 0.069,-0.223 0.07,-0.201 0.069,-0.182 0.069,-0.16 0.069,-0.14 0.069,-0.119 0.069,-0.098 0.07,-0.076 0.069,-0.055 0.069,-0.034 0.069,-0.013 0.069,0.008 0.07,0.03 0.069,0.052 0.069,0.072 0.069,0.094 0.069,0.114 0.069,0.136 0.07,0.157 0.069,0.177 0.069,0.198 0.069,0.218 0.069,0.239 0.07,0.258 0.069,0.278 0.069,0.298 0.138,0.653 0.069,0.355 0.07,0.372 0.138,0.8 0.068,0.417 0.068,0.434 0.135,0.915 0.271,2.007 0.068,0.537 0.068,0.55 0.136,1.137 0.271,2.41 0.068,0.628 0.068,0.637 0.135,1.3 0.272,2.688 0.542,5.613 0.068,0.714 0.068,0.715 0.135,1.43 0.272,2.851 0.542,5.559 0.068,0.673 0.068,0.666 0.136,1.314 0.271,2.538 0.542,4.651 0.074,0.582 0.074,0.57 0.147,1.101 0.294,2.046 0.074,0.479 0.073,0.464 0.147,0.89 0.295,1.617 0.073,0.371 0.074,0.358 0.147,0.676 0.073,0.318 0.074,0.306 0.147,0.574 0.074,0.268 0.073,0.257 0.147,0.478 0.074,0.221 0.074,0.211 0.147,0.389 0.073,0.179 0.074,0.168 0.073,0.159 0.074,0.15 0.074,0.14 0.073,0.131 0.147,0.238 0.074,0.107 0.073,0.099 0.074,0.091 0.074,0.085 0.073,0.078 0.074,0.072 0.073,0.066 0.074,0.06 0.073,0.054 0.074,0.049 0.074,0.045 0.073,0.04 0.074,0.036 0.073,0.032 0.074,0.028 0.073,0.025 0.074,0.022 0.074,0.019 0.073,0.017 0.074,0.014 0.073,0.011 0.074,0.01 0.074,0.009 0.073,0.007 0.069,0.005 0.068,0.004 0.069,0.003 0.069,0.003 0.068,0.002 0.069,0.001 0.069,10e-4 0.068,0.001 0.069,0 0.069,0.001 0.068,0 0.069,0 0.069,0 0.068,0 0.069,0 0.069,0 0.068,0 0.069,0 0.069,0 0.068,0 0.069,-0.001 0.069,0 0.068,-0.001 0.069,-10e-4 0.069,-0.001 0.068,-0.002 0.069,-0.003 0.069,-0.003 0.068,-0.005 0.069,-0.005 0.069,-0.006 0.068,-0.008 0.069,-0.009 0.068,-0.011 0.069,-0.012 0.069,-0.014 0.068,-0.017 0.069,-0.018 0.069,-0.022 0.068,-0.024 0.069,-0.026 0.069,-0.03 0.068,-0.034 0.069,-0.036 0.069,-0.041 0.068,-0.045 0.069,-0.048 0.069,-0.053 0.068,-0.058 0.069,-0.063 0.069,-0.068 0.068,-0.073 0.069,-0.078 0.069,-0.085 0.137,-0.187 0.069,-0.103 0.068,-0.11 0.138,-0.24 0.068,-0.131 0.069,-0.139 0.137,-0.3 0.075,-0.177 0.074,-0.185 0.149,-0.402 0.074,-0.217 0.075,-0.227 0.149,-0.486 0.074,-0.259 0.074,-0.271 0.149,-0.575 0.298,-1.289 0.074,-0.351 0.075,-0.363 0.149,-0.761 0.297,-1.662 0.075,-0.444 0.074,-0.456 0.149,-0.943 0.297,-2.015 0.075,-0.529 0.074,-0.538 0.149,-1.105 0.298,-2.311 0.595,-4.943 1.191,-10.324 0.073,-0.615 0.073,-0.609 0.146,-1.201 0.292,-2.313 0.073,-0.556 0.073,-0.547 0.146,-1.063 0.293,-1.986 0.073,-0.466 0.073,-0.451 0.146,-0.861 0.073,-0.409 0.073,-0.393 0.146,-0.74 0.073,-0.345 0.073,-0.329 0.073,-0.312 0.073,-0.295 0.073,-0.277 0.073,-0.26 0.146,-0.465 0.074,-0.205 0.073,-0.186 0.073,-0.168 0.073,-0.148 0.073,-0.129 0.073,-0.11 0.073,-0.091 0.073,-0.071 0.073,-0.052 0.073,-0.032 0.073,-0.013 0.073,0.007 0.073,0.026 0.073,0.046 0.073,0.065 0.073,0.084 0.073,0.104 0.073,0.123 0.074,0.142 0.073,0.161 0.073,0.179 0.073,0.198 0.073,0.216 0.073,0.235 0.073,0.252 0.073,0.269 0.146,0.591 0.073,0.32 0.073,0.337 0.146,0.721 0.068,0.358 0.068,0.37 0.137,0.778 0.272,1.698 0.068,0.452 0.069,0.462 0.136,0.953 0.272,2.01 0.069,0.522 0.068,0.529 0.136,1.078 0.273,2.219 0.545,4.604 0.068,0.583 0.068,0.583 0.136,1.166 0.273,2.316 0.545,4.493 0.068,0.542 0.068,0.537 0.136,1.056 0.273,2.036 0.545,3.717 0.074,0.464 0.074,0.454 0.148,0.876 0.295,1.627 0.074,0.379 0.074,0.369 0.148,0.706 0.295,1.282 0.074,0.294 0.074,0.283 0.148,0.535 0.074,0.253 0.074,0.242 0.148,0.455 0.074,0.212 0.073,0.204 0.148,0.379 0.074,0.176 0.074,0.167 0.148,0.309 0.074,0.142 0.074,0.134 0.073,0.127 0.074,0.119 0.074,0.113 0.074,0.105 0.148,0.19 0.074,0.086 0.074,0.08 0.074,0.074 0.074,0.068 0.073,0.064 0.074,0.058 0.074,0.053 0.074,0.049 0.074,0.045 0.074,0.041 0.074,0.037 0.074,0.033 0.074,0.03 0.073,0.027 0.074,0.024 0.074,0.021 0.074,0.019 0.074,0.016 0.074,0.015 0.074,0.012 0.074,0.011 0.074,0.009 0.074,0.007 0.073,0.007 0.069,0.005 0.069,0.004 0.069,0.003 0.069,0.003 0.069,0.002 0.069,0.001 0.069,0.002 0.069,0 0.069,0.001 0.069,0 0.069,0.001 0.069,0 0.069,0 0.069,0 0.069,0 0.069,0 0.069,0 0.069,0 0.069,0 0.069,0 0.069,0 0.069,0 0.069,0 0.069,-0.001 0.069,0 0.069,-0.001 0.069,-10e-4 0.069,-0.002 0.069,-0.002 0.069,-0.002 0.069,-0.003 0.069,-0.004 0.069,-0.004 0.069,-0.006 0.069,-0.006 0.069,-0.007 0.069,-0.009 0.069,-0.01 0.069,-0.011 0.069,-0.013 0.069,-0.014 0.069,-0.016 0.069,-0.018 0.069,-0.02 0.069,-0.022 0.068,-0.025 0.069,-0.027 0.069,-0.029 0.069,-0.032 0.069,-0.035 0.069,-0.038 0.069,-0.041 0.069,-0.044 0.069,-0.048 0.138,-0.106 0.069,-0.058 0.069,-0.062 0.138,-0.137 0.069,-0.074 0.069,-0.079 0.138,-0.171 0.068,-0.091 0.067,-0.095 0.136,-0.204 0.067,-0.109 0.068,-0.115 0.135,-0.243 0.068,-0.13 0.067,-0.134 0.136,-0.285 0.27,-0.632 0.068,-0.172 0.067,-0.176 0.136,-0.37 0.27,-0.803 0.068,-0.214 0.067,-0.219 0.136,-0.453 0.27,-0.965 0.068,-0.253 0.067,-0.257 0.135,-0.528 0.271,-1.105 0.541,-2.369 1.082,-5.041 0.073,-0.339 0.074,-0.338 0.146,-0.669 0.294,-1.3 0.073,-0.316 0.074,-0.311 0.146,-0.608 0.294,-1.153 0.073,-0.273 0.074,-0.266 0.146,-0.512 0.074,-0.245 0.073,-0.238 0.147,-0.451 0.073,-0.214 0.074,-0.205 0.146,-0.385 0.074,-0.178 0.073,-0.17 0.147,-0.311 0.073,-0.142 0.074,-0.131 0.073,-0.122 0.073,-0.112 0.074,-0.101 0.073,-0.092 0.074,-0.081 0.073,-0.071 0.073,-0.06 0.074,-0.051 0.073,-0.039 0.073,-0.029 0.074,-0.019 0.073,-0.008 0.074,0.002 0.073,0.013 0.073,0.023 0.074,0.033 0.073,0.044 0.073,0.055 0.074,0.064 0.073,0.075 0.074,0.085 0.073,0.094 0.073,0.105 0.074,0.114 0.073,0.124 0.073,0.133 0.074,0.143 0.073,0.152 0.147,0.33 0.068,0.167 0.069,0.173 0.137,0.368 0.274,0.819 0.068,0.22 0.069,0.226 0.136,0.47 0.274,1.002 0.069,0.263 0.068,0.266 0.137,0.546 0.274,1.133 0.548,2.383 0.068,0.304 0.069,0.305 0.136,0.612 0.274,1.223 0.548,2.4 0.068,0.292 0.069,0.289 0.137,0.572 0.274,1.108 0.547,2.047 0.075,0.258 0.074,0.253 0.148,0.491 0.297,0.917 0.074,0.216 0.075,0.21 0.148,0.404 0.297,0.741 0.074,0.172 0.074,0.166 0.149,0.315 0.074,0.15 0.074,0.144 0.149,0.272 0.074,0.129 0.074,0.123 0.148,0.232 0.075,0.108 0.074,0.104 0.148,0.194 0.074,0.089 0.075,0.086 0.148,0.158 0.074,0.073 0.075,0.069 0.148,0.127 0.074,0.058 0.074,0.054 0.075,0.051 0.074,0.048 0.074,0.045 0.074,0.041 0.149,0.075 0.074,0.033 0.074,0.031 0.074,0.028 0.075,0.027 0.074,0.023 0.074,0.022 0.074,0.02 0.074,0.018 0.075,0.017 0.074,0.015 0.074,0.013 0.074,0.012 0.075,0.011 0.074,0.009 0.074,0.008 0.074,0.007 0.069,0.006 0.07,0.006 0.069,0.004 0.069,0.004 0.07,0.003 0.069,0.003 0.069,0.002 0.07,0.002 0.069,0.002 0.069,0.001 0.069,0.001 0.07,10e-4 0.069,0.001 0.069,0 0.07,0 0.069,0.001 0.069,0 0.07,0 0.069,0 0.069,0 0.069,0 0.07,0 0.069,0 0.069,0 0.07,0 0.069,0 0.069,0 0.07,0 0.069,0 0.069,0 0.069,0 0.07,-0.001 0.069,0 0.069,0 0.07,-0.001 0.069,-10e-4 0.069,-0.001 0.07,-0.001 0.069,-0.002 0.069,-0.002 0.069,-0.002 0.07,-0.002 0.069,-0.003 0.069,-0.004 0.07,-0.004 0.069,-0.004 0.069,-0.005 0.07,-0.006 0.069,-0.006 0.069,-0.007 0.069,-0.008 0.07,-0.009 0.069,-0.009 0.069,-0.01 0.139,-0.024 0.069,-0.013 0.07,-0.015 0.069,-0.015 0.069,-0.017 0.069,-0.018 0.07,-0.019 0.138,-0.042 0.068,-0.023 0.068,-0.024 0.136,-0.052 0.068,-0.028 0.068,-0.03 0.136,-0.063 0.068,-0.035 0.068,-0.035 0.136,-0.077 0.271,-0.172 0.068,-0.047 0.068,-0.049 0.136,-0.103 0.272,-0.225 0.068,-0.061 0.068,-0.062 0.136,-0.129 0.272,-0.277 0.067,-0.073 0.068,-0.074 0.136,-0.153 0.272,-0.322 0.544,-0.695 1.087,-1.493 0.073,-0.101 0.074,-0.1 0.147,-0.198 0.295,-0.386 0.074,-0.094 0.074,-0.092 0.147,-0.18 0.295,-0.341 0.073,-0.08 0.074,-0.079 0.148,-0.151 0.073,-0.072 0.074,-0.069 0.147,-0.133 0.074,-0.062 0.074,-0.06 0.147,-0.112 0.074,-0.052 0.074,-0.049 0.147,-0.09 0.074,-0.041 0.073,-0.037 0.074,-0.035 0.074,-0.032 0.073,-0.028 0.074,-0.026 0.074,-0.023 0.073,-0.019 0.074,-0.017 0.074,-0.013 0.074,-0.01 0.073,-0.007 0.074,-0.004 0.074,-0.001 0.073,0.002 0.074,0.006 0.074,0.008 0.073,0.012 0.074,0.014 0.074,0.018 0.074,0.02 0.073,0.024 0.074,0.026 0.074,0.029 0.073,0.033 0.074,0.035 0.074,0.037 0.073,0.041 0.074,0.043 0.074,0.046 0.147,0.099 0.069,0.05 0.069,0.052 0.137,0.109 0.275,0.243 0.069,0.065 0.069,0.066 0.138,0.138 0.275,0.293 0.068,0.077 0.069,0.077 0.138,0.159 0.275,0.328 0.55,0.684 0.069,0.087 0.069,0.087 0.137,0.175 0.275,0.347 0.551,0.678 0.068,0.082 0.069,0.081 0.138,0.16 0.275,0.31 0.55,0.571 0.075,0.071 0.074,0.07 0.149,0.136 0.298,0.254 0.075,0.06 0.075,0.058 0.149,0.112 0.298,0.204 0.074,0.048 0.075,0.046 0.149,0.087 0.074,0.041 0.075,0.04 0.149,0.076 0.075,0.035 0.074,0.034 0.149,0.065 0.075,0.03 0.074,0.029 0.149,0.054 0.075,0.025 0.074,0.024 0.149,0.045 0.075,0.02 0.075,0.02 0.149,0.036 0.074,0.016 0.075,0.016 0.074,0.015 0.075,0.013 0.074,0.013 0.075,0.013 0.149,0.022 0.074,0.009 0.075,0.01 0.075,0.008 0.074,0.008 0.075,0.007 0.074,0.007 0.149,0.012 0.075,0.005 0.074,0.005 0.075,0.004 0.074,0.004 0.075,0.004 0.074,0.003 0.075,0.003 0.075,0.002 0.073,0.003 0.073,0.002 0.073,0.001 0.073,0.002 0.073,0.001 0.074,0.001 0.073,0.001 0.073,0.001 0.073,0.001 0.073,10e-4 0.073,0 0.074,0.001 0.073,0 0.073,0 0.073,0 0.073,0.001 0.074,0 0.073,0 0.073,0 0.073,0 0.073,0 0.073,0 0.074,0 0.073,0 0.073,0 0.073,0 0.073,0 0.073,0 0.074,0 0.073,0 0.073,0 0.073,0 0.073,0 0.074,0 0.073,0 0.073,0 0.073,0 0.073,0 0.073,0 0.074,-0.001 0.073,0 0.073,0 0.073,0 0.073,-0.001 0.073,0 0.074,-10e-4 0.073,0 0.073,-0.001 0.073,-0.001 0.073,-0.001 0.074,0 0.073,-0.002 0.073,-10e-4 0.073,-0.001 0.073,-0.001 0.073,-0.002 0.074,-0.002 0.073,-0.002 0.073,-0.002 0.073,-0.002 0.073,-0.002 0.074,-0.003 0.146,-0.005 0.068,-0.003 0.068,-0.003 0.137,-0.007 0.068,-0.003 0.068,-0.004 0.137,-0.008 0.068,-0.004 0.068,-0.005 0.137,-0.009 0.273,-0.021 0.068,-0.005 0.069,-0.006 0.136,-0.012 0.273,-0.027 0.068,-0.007 0.069,-0.007 0.136,-0.015 0.273,-0.031 0.069,-0.008 0.068,-0.008 0.136,-0.017 0.273,-0.035 0.546,-0.071 0.069,-0.009 0.068,-0.009 0.137,-0.018 0.273,-0.036 0.546,-0.067 0.074,-0.008 0.074,-0.009 0.148,-0.016 0.074,-0.008 0.074,-0.007 0.148,-0.015 0.074,-0.007 0.074,-0.007 0.148,-0.012 0.074,-0.006 0.074,-0.006 0.148,-0.011 0.074,-0.005 0.074,-0.004 0.074,-0.005 0.074,-0.004 0.074,-0.004 0.074,-0.003 0.074,-0.003 0.074,-0.003 0.074,-0.003 0.074,-0.002 0.074,-0.002 0.074,-0.002 0.074,-0.001 0.074,-10e-4 0.074,-0.001 0.074,0 0.074,0 0.074,0 0.074,0 0.074,0.001 0.074,10e-4 0.074,0.001 0.074,0.002 0.074,0.002 0.074,0.002 0.074,0.003 0.074,0.003 0.074,0.003 0.074,0.003 0.074,0.004 0.148,0.008 0.074,0.004 0.075,0.005 0.148,0.01 0.074,0.005 0.074,0.005 0.148,0.012 0.074,0.006 0.074,0.006 0.148,0.013 0.296,0.028 0.069,0.007 0.069,0.007 0.138,0.014 0.277,0.03 0.552,0.061 0.069,0.008 0.07,0.008 0.138,0.015 0.276,0.031 0.553,0.06 0.069,0.007 0.069,0.007 0.138,0.014 0.277,0.027 0.069,0.007 0.069,0.006 0.138,0.013 0.277,0.023 0.069,0.006 0.069,0.006 0.138,0.011 0.276,0.02 0.07,0.005 0.069,0.004 0.138,0.009 0.276,0.017 0.068,0.004 0.068,0.003 0.135,0.007 0.068,0.004 0.068,0.003 0.135,0.006 0.068,0.003 0.068,0.003 0.135,0.005 0.271,0.01 0.068,0.002 0.068,0.003 0.135,0.004 0.068,0.001 0.068,0.002 0.135,0.004 0.068,10e-4 0.068,0.002 0.135,0.003 0.068,10e-4 0.068,0.001 0.135,0.002 0.068,0.002 0.068,10e-4 0.135,0.001 0.068,0.001 0.068,0.001 0.135,0.002 0.068,0 0.068,10e-4 0.067,0.001 0.068,0 0.068,0.001 0.067,0 0.136,0.001 0.068,0.001 0.067,0 0.068,0 0.068,0.001 0.068,0 0.067,0 0.136,10e-4 0.068,0 0.067,0 0.068,0 0.068,0.001 0.068,0 0.067,0 0.068,0 0.068,0 0.073,0 0.074,0 0.073,0 0.074,0.001 0.073,0 0.074,0 0.073,0 0.074,0 0.073,0 0.074,0 0.073,0 0.074,0 0.073,0 0.074,0 0.073,0 0.074,0 0.073,0 0.074,0 0.073,0 0.074,0 0.073,0 0.074,0 0.073,0 0.074,0 0.073,0 0.074,0 0.073,0 0.074,0 0.147,0 0.147,0 0.294,0 0.294,0 0.073,0 0.074,0 0.073,0 0.074,0 0.073,0 0.074,0 0.073,0 0.074,0 0.073,0 0.074,0 0.073,0 0.074,0 0.073,0 0.074,0 0.073,0 0.074,0 0.073,0 0.074,0 0.073,0 0.074,0 0.073,0 0.074,0 0.147,0 0.068,0 0.069,0 0.137,0 0.274,0 0.549,0 0.069,0 0.068,0 0.137,0 0.069,0 0.069,0 0.137,0 0.068,0 0.069,0 0.137,0 0.069,0 0.068,0 0.137,-0.001 0.069,0 0.069,0 0.068,0 0.069,0 0.068,0 0.069,0 0.068,0 0.069,0 0.069,0 0.068,0 0.069,0 0.068,0 0.069,0 0.069,0 0.068,0 0.069,0 0.068,0 0.069,0 0.068,0 0.069,0 0.069,0 0.068,0 0.137,0.001 0.069,0 0.069,0 0.137,0 0.274,0 0.077,0 0.076,0 0.153,0 0.307,0 0.076,0 0.077,0 0.153,0 0.306,0 0.077,0 0.076,0 0.153,0 0.077,0 0.076,0 0.153,0 0.077,0 0.077,0 0.153,0 0.076,0 0.077,0 0.153,0 0.077,0 0.076,0 0.077,0 0.076,0 0.077,0 0.076,0 0.077,0 0.076,0 0.077,0 0.077,0 0.076,0 0.077,0 0.076,0 0.077,0 0.076,0 0.077,0 0.076,0 0.077,0 0.077,0 0.076,0 0.077,0 0.076,0 0.077,0 0.076,0 0.307,0 0.306,0"
                     style="fill:none;stroke:#3f3d99;stroke-opacity:1;stroke-width:0.4;stroke-linecap:square;stroke-linejoin:miter;stroke-miterlimit:3.25;stroke-dasharray:none"
                     id="path3043" /></g></g><g
                 id="g3045"><g
                   id="g3047"
                   clip-path="url(#clipPath3049)" /></g></g></g></g></g></g><path
       style="fill:none;stroke:#000000;stroke-width:1;stroke-linecap:butt;stroke-linejoin:miter;stroke-opacity:1;stroke-miterlimit:4;stroke-dasharray:4,4;stroke-dashoffset:0"
       d="m 121.20344,1.4558489 0,183.9541511"
       id="path3053"
       inkscape:connector-curvature="0"
       transform="matrix(0.8,0,0,0.8,31.2,3.2)" /><path
       style="fill:none;stroke:#000000;stroke-width:1;stroke-linecap:butt;stroke-linejoin:miter;stroke-opacity:1;stroke-miterlimit:4;stroke-dasharray:4,4;stroke-dashoffset:0"
       d="M 130.91079,1.0997914 131.51862,183.69081"
       id="path3055"
       inkscape:connector-curvature="0"
       transform="matrix(0.8,0,0,0.8,31.2,3.2)"
       sodipodi:nodetypes="cc" /><path
       style="fill:none;stroke:#000000;stroke-width:0.6;stroke-linecap:butt;stroke-linejoin:miter;stroke-opacity:1;marker-start:url(#Arrow1Lend);marker-end:url(#Arrow1Lend);stroke-miterlimit:4;stroke-dasharray:none"
       d="m 120.95781,95.451433 c 10.33308,0 9.72525,0 9.72525,0"
       id="path3825"
       inkscape:connector-curvature="0"
       transform="matrix(0.8,0,0,0.8,31.2,3.2)" /><text
       xml:space="preserve"
       style="font-size:32px;font-style:normal;font-weight:normal;line-height:125%;letter-spacing:0px;word-spacing:0px;fill:#000000;fill-opacity:1;stroke:none;font-family:Bitstream Vera Sans"
       x="146.44423"
       y="80.533669"
       id="text5389"
       sodipodi:linespacing="125%"><tspan
         sodipodi:role="line"
         id="tspan5391"
         x="146.44423"
         y="80.533669"
         style="font-size:8px;font-style:normal;font-variant:normal;font-weight:normal;font-stretch:normal;text-align:start;line-height:125%;writing-mode:lr-tb;text-anchor:start;font-family:Sans;-inkscape-font-specification:Sans"
         dy="0 2.4313128"><tspan
   style="font-size:11.19999981px;font-style:normal;font-variant:normal;font-weight:normal;font-stretch:normal;text-align:start;line-height:125%;writing-mode:lr-tb;text-anchor:start;font-family:Sans;-inkscape-font-specification:Sans"
   id="tspan5399">w</tspan>Raman</tspan></text>
</g></svg>